<svg width="20" height="20" viewBox="0 0 20 20" fill="none" xmlns="http://www.w3.org/2000/svg">
<path fill-rule="evenodd" clip-rule="evenodd" d="M9.99999 18.3333C14.6024 18.3333 18.3333 14.6024 18.3333 9.99999C18.3333 5.39762 14.6024 1.66666 9.99999 1.66666C5.39762 1.66666 1.66666 5.39762 1.66666 9.99999C1.66666 14.6024 5.39762 18.3333 9.99999 18.3333ZM13.7753 7.94194C14.0194 7.69786 14.0194 7.30214 13.7753 7.05806C13.5312 6.81398 13.1355 6.81398 12.8914 7.05806L9.16667 10.7828L7.94194 9.55806C7.69786 9.31398 7.30214 9.31398 7.05806 9.55806C6.81398 9.80214 6.81398 10.1979 7.05806 10.4419L8.72472 12.1086C8.84194 12.2258 9.00091 12.2917 9.16667 12.2917C9.33243 12.2917 9.4914 12.2258 9.60861 12.1086L13.7753 7.94194Z" fill="#13172F"/>
</svg>
